# xmcd
#
# Track frame offsets: 
#        150
#        37607
#        69957
#        101365
#        126730
#        149015
#        177015
#        207422
#        247365
#
# Disc length: 3627 seconds
#
# Revision: 4
# Processed by: cddbd v1.5.2PL0 Copyright (c) Steve Scherf et al.
# Submitted via: ExactAudioCopyFreeDBPlugin 1.0
#
DISCID=850e2909
DTITLE=Jazztronik - Numero Uno
DYEAR=2002
DGENRE=Trip-Hop
TTITLE0=Brisa
TTITLE1=Song of Bebe
TTITLE2=From the picture
TTITLE3=Now or never
TTITLE4=すき
TTITLE5=Siesta
TTITLE6=Red Line
TTITLE7=Turn the key in the lock
TTITLE8=Now or never (remix)
EXTD=YEAR: 2002 ID3G: 27
EXTT0=
EXTT1=
EXTT2=
EXTT3=
EXTT4=
EXTT5=
EXTT6=
EXTT7=
EXTT8=
PLAYORDER=
